<mxfile modified="2024-06-20T20:34:07.644Z" host="app.diagrams.net" agent="Mozilla/5.0 (Macintosh; Intel Mac OS X 10_15_7) AppleWebKit/537.36 (KHTML, like Gecko) Chrome/126.0.0.0 Safari/537.36" etag="C2UZ9iucNZ9Sxim2y2fs" version="24.5.5" type="device">
  <diagram id="Ht1M8jgEwFfnCIfOTk4-" name="Page-1">
    <mxGraphModel dx="9876" dy="5733" grid="1" gridSize="10" guides="1" tooltips="1" connect="1" arrows="1" fold="1" page="1" pageScale="1" pageWidth="1169" pageHeight="827" math="0" shadow="0">
      <root>
        <mxCell id="0" />
        <mxCell id="1" parent="0" />
        <mxCell id="ATrI4HB5Xo_vaF7HW7Qg-64" value="" style="rounded=0;html=1;shadow=0;dashed=1;sketch=0;strokeWidth=2;strokeColor=none;labelBackgroundColor=default;fontColor=default;" parent="1" vertex="1">
          <mxGeometry x="-330" y="270" width="1320" height="1570" as="geometry" />
        </mxCell>
        <mxCell id="ATrI4HB5Xo_vaF7HW7Qg-1" value="Region" style="points=[[0,0],[0.25,0],[0.5,0],[0.75,0],[1,0],[1,0.25],[1,0.5],[1,0.75],[1,1],[0.75,1],[0.5,1],[0.25,1],[0,1],[0,0.75],[0,0.5],[0,0.25]];outlineConnect=0;gradientColor=none;html=1;whiteSpace=wrap;fontSize=12;fontStyle=0;shape=mxgraph.aws4.group;grIcon=mxgraph.aws4.group_region;strokeColor=#147EBA;fillColor=none;verticalAlign=top;align=left;spacingLeft=30;fontColor=#147EBA;dashed=1;" parent="1" vertex="1">
          <mxGeometry x="-240" y="850" width="1160" height="940" as="geometry" />
        </mxCell>
        <mxCell id="4pKm6GpEN4dzPu7E078--6" style="edgeStyle=orthogonalEdgeStyle;rounded=0;orthogonalLoop=1;jettySize=auto;html=1;exitX=0.5;exitY=0;exitDx=0;exitDy=0;" edge="1" parent="1" source="ATrI4HB5Xo_vaF7HW7Qg-1" target="ATrI4HB5Xo_vaF7HW7Qg-1">
          <mxGeometry relative="1" as="geometry" />
        </mxCell>
        <mxCell id="ATrI4HB5Xo_vaF7HW7Qg-9" value="VPC" style="points=[[0,0],[0.25,0],[0.5,0],[0.75,0],[1,0],[1,0.25],[1,0.5],[1,0.75],[1,1],[0.75,1],[0.5,1],[0.25,1],[0,1],[0,0.75],[0,0.5],[0,0.25]];outlineConnect=0;gradientColor=none;html=1;whiteSpace=wrap;fontSize=12;fontStyle=0;shape=mxgraph.aws4.group;grIcon=mxgraph.aws4.group_vpc;strokeColor=#248814;fillColor=none;verticalAlign=top;align=left;spacingLeft=30;fontColor=#AAB7B8;dashed=0;" parent="1" vertex="1">
          <mxGeometry x="-100" y="900" width="1010" height="871.25" as="geometry" />
        </mxCell>
        <mxCell id="ATrI4HB5Xo_vaF7HW7Qg-7" value="" style="rounded=0;whiteSpace=wrap;html=1;dashed=1;strokeWidth=2;strokeColor=#d79b00;fillColor=none;" parent="1" vertex="1">
          <mxGeometry x="-210" y="1300" width="1080" height="130" as="geometry" />
        </mxCell>
        <mxCell id="ATrI4HB5Xo_vaF7HW7Qg-60" value="" style="rounded=0;whiteSpace=wrap;html=1;dashed=1;strokeWidth=2;strokeColor=#d79b00;fillColor=none;" parent="1" vertex="1">
          <mxGeometry x="-210" y="1076.7" width="1070" height="133.3" as="geometry" />
        </mxCell>
        <mxCell id="4pKm6GpEN4dzPu7E078--8" style="edgeStyle=orthogonalEdgeStyle;rounded=0;orthogonalLoop=1;jettySize=auto;html=1;exitX=0.5;exitY=1;exitDx=0;exitDy=0;" edge="1" parent="1" source="ATrI4HB5Xo_vaF7HW7Qg-10" target="ATrI4HB5Xo_vaF7HW7Qg-15">
          <mxGeometry relative="1" as="geometry" />
        </mxCell>
        <mxCell id="ATrI4HB5Xo_vaF7HW7Qg-10" value="Availability Zone 1" style="fillColor=none;strokeColor=#147EBA;dashed=1;verticalAlign=top;fontStyle=0;fontColor=#147EBA;" parent="1" vertex="1">
          <mxGeometry x="-40" y="990" width="270" height="720" as="geometry" />
        </mxCell>
        <mxCell id="ATrI4HB5Xo_vaF7HW7Qg-5" value="Private subnet (App)" style="points=[[0,0],[0.25,0],[0.5,0],[0.75,0],[1,0],[1,0.25],[1,0.5],[1,0.75],[1,1],[0.75,1],[0.5,1],[0.25,1],[0,1],[0,0.75],[0,0.5],[0,0.25]];outlineConnect=0;gradientColor=none;html=1;whiteSpace=wrap;fontSize=12;fontStyle=0;shape=mxgraph.aws4.group;grIcon=mxgraph.aws4.group_security_group;grStroke=0;strokeColor=#147EBA;fillColor=#E6F2F8;verticalAlign=top;align=left;spacingLeft=30;fontColor=#147EBA;dashed=0;" parent="1" vertex="1">
          <mxGeometry x="-20" y="1260" width="230" height="190" as="geometry" />
        </mxCell>
        <mxCell id="ATrI4HB5Xo_vaF7HW7Qg-30" style="edgeStyle=orthogonalEdgeStyle;rounded=0;orthogonalLoop=1;jettySize=auto;html=1;entryX=0.5;entryY=0;entryDx=0;entryDy=0;entryPerimeter=0;fontColor=#000000;startArrow=classic;startFill=1;strokeWidth=2;gradientColor=#97d077;fillColor=#d5e8d4;strokeColor=#82b366;exitX=0.5;exitY=1;exitDx=0;exitDy=0;exitPerimeter=0;" parent="1" source="ATrI4HB5Xo_vaF7HW7Qg-27" target="ATrI4HB5Xo_vaF7HW7Qg-26" edge="1">
          <mxGeometry relative="1" as="geometry">
            <mxPoint x="43" y="320" as="sourcePoint" />
          </mxGeometry>
        </mxCell>
        <mxCell id="ATrI4HB5Xo_vaF7HW7Qg-17" style="edgeStyle=orthogonalEdgeStyle;rounded=0;orthogonalLoop=1;jettySize=auto;html=1;strokeWidth=2;fillColor=#d5e8d4;strokeColor=#82b366;startArrow=classic;startFill=1;gradientColor=#97d077;" parent="1" source="ATrI4HB5Xo_vaF7HW7Qg-2" target="ATrI4HB5Xo_vaF7HW7Qg-16" edge="1">
          <mxGeometry relative="1" as="geometry" />
        </mxCell>
        <mxCell id="ATrI4HB5Xo_vaF7HW7Qg-3" value="Public subnet" style="points=[[0,0],[0.25,0],[0.5,0],[0.75,0],[1,0],[1,0.25],[1,0.5],[1,0.75],[1,1],[0.75,1],[0.5,1],[0.25,1],[0,1],[0,0.75],[0,0.5],[0,0.25]];outlineConnect=0;gradientColor=none;html=1;whiteSpace=wrap;fontSize=12;fontStyle=0;shape=mxgraph.aws4.group;grIcon=mxgraph.aws4.group_security_group;grStroke=0;strokeColor=#248814;fillColor=#E9F3E6;verticalAlign=top;align=left;spacingLeft=30;fontColor=#248814;dashed=0;" parent="1" vertex="1">
          <mxGeometry x="-20" y="1040" width="230" height="190" as="geometry" />
        </mxCell>
        <mxCell id="ATrI4HB5Xo_vaF7HW7Qg-8" value="Auto Scaling" style="outlineConnect=0;fontColor=#232F3E;gradientColor=none;fillColor=#D05C17;strokeColor=none;dashed=0;verticalLabelPosition=bottom;verticalAlign=top;align=center;html=1;fontSize=12;fontStyle=0;aspect=fixed;pointerEvents=1;shape=mxgraph.aws4.auto_scaling2;labelBackgroundColor=default;" parent="1" vertex="1">
          <mxGeometry x="-167.5" y="1335.5" width="45" height="45" as="geometry" />
        </mxCell>
        <mxCell id="ATrI4HB5Xo_vaF7HW7Qg-11" value="NAT Gateway" style="outlineConnect=0;fontColor=#232F3E;gradientColor=none;fillColor=#5A30B5;strokeColor=none;dashed=0;verticalLabelPosition=bottom;verticalAlign=top;align=center;html=1;fontSize=12;fontStyle=0;aspect=fixed;pointerEvents=1;shape=mxgraph.aws4.nat_gateway;labelBackgroundColor=default;" parent="1" vertex="1">
          <mxGeometry x="60" y="1110" width="45" height="45" as="geometry" />
        </mxCell>
        <mxCell id="ATrI4HB5Xo_vaF7HW7Qg-15" value="Private subnet (Data)" style="points=[[0,0],[0.25,0],[0.5,0],[0.75,0],[1,0],[1,0.25],[1,0.5],[1,0.75],[1,1],[0.75,1],[0.5,1],[0.25,1],[0,1],[0,0.75],[0,0.5],[0,0.25]];outlineConnect=0;gradientColor=none;html=1;whiteSpace=wrap;fontSize=12;fontStyle=0;shape=mxgraph.aws4.group;grIcon=mxgraph.aws4.group_security_group;grStroke=0;strokeColor=#147EBA;fillColor=#E6F2F8;verticalAlign=top;align=left;spacingLeft=30;fontColor=#147EBA;dashed=0;" parent="1" vertex="1">
          <mxGeometry x="-20" y="1480" width="230" height="200" as="geometry" />
        </mxCell>
        <mxCell id="4pKm6GpEN4dzPu7E078--12" style="edgeStyle=orthogonalEdgeStyle;rounded=0;orthogonalLoop=1;jettySize=auto;html=1;fillColor=#ffe6cc;strokeColor=#d79b00;strokeWidth=4;startArrow=block;startFill=1;" edge="1" parent="1" source="ATrI4HB5Xo_vaF7HW7Qg-16" target="ATrI4HB5Xo_vaF7HW7Qg-8">
          <mxGeometry relative="1" as="geometry">
            <Array as="points">
              <mxPoint x="-230" y="1135" />
              <mxPoint x="-230" y="1358" />
            </Array>
          </mxGeometry>
        </mxCell>
        <mxCell id="ATrI4HB5Xo_vaF7HW7Qg-16" value="Network &amp;amp; Application &lt;br&gt;Load Balancer" style="outlineConnect=0;fontColor=#232F3E;gradientColor=none;fillColor=#5A30B5;strokeColor=none;dashed=0;verticalLabelPosition=bottom;verticalAlign=top;align=center;html=1;fontSize=12;fontStyle=0;aspect=fixed;pointerEvents=1;shape=mxgraph.aws4.application_load_balancer;labelBackgroundColor=default;" parent="1" vertex="1">
          <mxGeometry x="-167.5" y="1112.5" width="45" height="45" as="geometry" />
        </mxCell>
        <mxCell id="4pKm6GpEN4dzPu7E078--38" value="" style="edgeStyle=orthogonalEdgeStyle;rounded=0;orthogonalLoop=1;jettySize=auto;html=1;" edge="1" parent="1" source="ATrI4HB5Xo_vaF7HW7Qg-23" target="ATrI4HB5Xo_vaF7HW7Qg-9">
          <mxGeometry relative="1" as="geometry" />
        </mxCell>
        <mxCell id="ATrI4HB5Xo_vaF7HW7Qg-23" value="&lt;b&gt;&lt;font color=&quot;#000000&quot;&gt;S3 Bucket&lt;br&gt;for&lt;br&gt;static assets&lt;/font&gt;&lt;/b&gt;" style="outlineConnect=0;fontColor=#232F3E;gradientColor=none;fillColor=#277116;strokeColor=none;dashed=0;verticalLabelPosition=bottom;verticalAlign=top;align=center;html=1;fontSize=12;fontStyle=0;aspect=fixed;pointerEvents=1;shape=mxgraph.aws4.bucket_with_objects;shadow=0;sketch=0;textOpacity=30;labelBackgroundColor=default;" parent="1" vertex="1">
          <mxGeometry x="820" y="733.7" width="65" height="67.6" as="geometry" />
        </mxCell>
        <mxCell id="ATrI4HB5Xo_vaF7HW7Qg-31" style="edgeStyle=orthogonalEdgeStyle;rounded=0;orthogonalLoop=1;jettySize=auto;html=1;fontColor=#000000;startArrow=classic;startFill=1;strokeWidth=2;gradientColor=#97d077;fillColor=#d5e8d4;strokeColor=#82b366;" parent="1" source="ATrI4HB5Xo_vaF7HW7Qg-26" target="ATrI4HB5Xo_vaF7HW7Qg-2" edge="1">
          <mxGeometry relative="1" as="geometry">
            <Array as="points">
              <mxPoint x="-10" y="780" />
              <mxPoint x="-10" y="780" />
            </Array>
          </mxGeometry>
        </mxCell>
        <mxCell id="ATrI4HB5Xo_vaF7HW7Qg-32" style="edgeStyle=orthogonalEdgeStyle;rounded=0;orthogonalLoop=1;jettySize=auto;html=1;fontColor=#000000;startArrow=classic;startFill=1;strokeWidth=2;gradientColor=#97d077;fillColor=#d5e8d4;strokeColor=#9933FF;" parent="1" source="ATrI4HB5Xo_vaF7HW7Qg-26" target="ATrI4HB5Xo_vaF7HW7Qg-23" edge="1">
          <mxGeometry relative="1" as="geometry">
            <mxPoint x="892.25" y="730" as="sourcePoint" />
            <Array as="points">
              <mxPoint x="350" y="780" />
              <mxPoint x="350" y="780" />
            </Array>
            <mxPoint x="1396.0071695533275" y="767.5" as="targetPoint" />
          </mxGeometry>
        </mxCell>
        <mxCell id="ATrI4HB5Xo_vaF7HW7Qg-26" value="CloudFront" style="points=[[0,0,0],[0.25,0,0],[0.5,0,0],[0.75,0,0],[1,0,0],[0,1,0],[0.25,1,0],[0.5,1,0],[0.75,1,0],[1,1,0],[0,0.25,0],[0,0.5,0],[0,0.75,0],[1,0.25,0],[1,0.5,0],[1,0.75,0]];outlineConnect=0;fontColor=#232F3E;gradientColor=#945DF2;gradientDirection=north;fillColor=#5A30B5;strokeColor=#ffffff;dashed=0;verticalLabelPosition=bottom;verticalAlign=top;align=center;html=1;fontSize=12;fontStyle=0;aspect=fixed;shape=mxgraph.aws4.resourceIcon;resIcon=mxgraph.aws4.cloudfront;shadow=0;sketch=0;labelBackgroundColor=default;" parent="1" vertex="1">
          <mxGeometry x="260" y="730" width="75" height="75" as="geometry" />
        </mxCell>
        <mxCell id="ATrI4HB5Xo_vaF7HW7Qg-28" value="" style="outlineConnect=0;fontColor=#232F3E;gradientColor=none;fillColor=#232F3E;strokeColor=none;dashed=0;verticalLabelPosition=bottom;verticalAlign=top;align=center;html=1;fontSize=12;fontStyle=0;aspect=fixed;pointerEvents=1;shape=mxgraph.aws4.users;shadow=0;sketch=0;" parent="1" vertex="1">
          <mxGeometry x="257.5" y="334" width="80" height="80" as="geometry" />
        </mxCell>
        <mxCell id="ATrI4HB5Xo_vaF7HW7Qg-27" value="Route 53" style="points=[[0,0,0],[0.25,0,0],[0.5,0,0],[0.75,0,0],[1,0,0],[0,1,0],[0.25,1,0],[0.5,1,0],[0.75,1,0],[1,1,0],[0,0.25,0],[0,0.5,0],[0,0.75,0],[1,0.25,0],[1,0.5,0],[1,0.75,0]];outlineConnect=0;fontColor=#232F3E;gradientColor=#945DF2;gradientDirection=north;fillColor=#5A30B5;strokeColor=#ffffff;dashed=0;verticalLabelPosition=bottom;verticalAlign=top;align=center;html=1;fontSize=12;fontStyle=0;aspect=fixed;shape=mxgraph.aws4.resourceIcon;resIcon=mxgraph.aws4.route_53;shadow=0;sketch=0;" parent="1" vertex="1">
          <mxGeometry x="252.5" y="530" width="90" height="90" as="geometry" />
        </mxCell>
        <mxCell id="ATrI4HB5Xo_vaF7HW7Qg-2" value="Internet Gateway" style="outlineConnect=0;fontColor=#232F3E;gradientColor=none;fillColor=#5A30B5;strokeColor=none;dashed=0;verticalLabelPosition=bottom;verticalAlign=top;align=center;html=1;fontSize=12;fontStyle=0;aspect=fixed;pointerEvents=1;shape=mxgraph.aws4.internet_gateway;labelBackgroundColor=default;" parent="1" vertex="1">
          <mxGeometry x="-167.5" y="760" width="45" height="45" as="geometry" />
        </mxCell>
        <mxCell id="xWHWNUEEsjKfMoWFXEcJ-53" style="edgeStyle=orthogonalEdgeStyle;rounded=0;orthogonalLoop=1;jettySize=auto;html=1;exitX=0.5;exitY=1;exitDx=0;exitDy=0;strokeColor=#9933FF;" parent="1" edge="1">
          <mxGeometry relative="1" as="geometry">
            <mxPoint x="345.00000000000045" y="1770" as="sourcePoint" />
            <mxPoint x="345.00000000000045" y="1770" as="targetPoint" />
          </mxGeometry>
        </mxCell>
        <mxCell id="4pKm6GpEN4dzPu7E078--10" style="edgeStyle=orthogonalEdgeStyle;rounded=0;orthogonalLoop=1;jettySize=auto;html=1;exitX=0.5;exitY=1;exitDx=0;exitDy=0;entryX=0.502;entryY=0.965;entryDx=0;entryDy=0;entryPerimeter=0;" edge="1" parent="1" source="ATrI4HB5Xo_vaF7HW7Qg-10" target="ATrI4HB5Xo_vaF7HW7Qg-10">
          <mxGeometry relative="1" as="geometry" />
        </mxCell>
        <mxCell id="4pKm6GpEN4dzPu7E078--13" value="Availability Zone 3" style="fillColor=none;strokeColor=#147EBA;dashed=1;verticalAlign=top;fontStyle=0;fontColor=#147EBA;" vertex="1" parent="1">
          <mxGeometry x="560" y="987" width="270" height="723" as="geometry" />
        </mxCell>
        <mxCell id="4pKm6GpEN4dzPu7E078--14" value="Availability Zone 2" style="fillColor=none;strokeColor=#147EBA;dashed=1;verticalAlign=top;fontStyle=0;fontColor=#147EBA;" vertex="1" parent="1">
          <mxGeometry x="250" y="990" width="270" height="720" as="geometry" />
        </mxCell>
        <mxCell id="4pKm6GpEN4dzPu7E078--15" value="Public subnet" style="points=[[0,0],[0.25,0],[0.5,0],[0.75,0],[1,0],[1,0.25],[1,0.5],[1,0.75],[1,1],[0.75,1],[0.5,1],[0.25,1],[0,1],[0,0.75],[0,0.5],[0,0.25]];outlineConnect=0;gradientColor=none;html=1;whiteSpace=wrap;fontSize=12;fontStyle=0;shape=mxgraph.aws4.group;grIcon=mxgraph.aws4.group_security_group;grStroke=0;strokeColor=#248814;fillColor=#E9F3E6;verticalAlign=top;align=left;spacingLeft=30;fontColor=#248814;dashed=0;" vertex="1" parent="1">
          <mxGeometry x="270" y="1040" width="230" height="190" as="geometry" />
        </mxCell>
        <mxCell id="4pKm6GpEN4dzPu7E078--16" value="Private subnet (App)" style="points=[[0,0],[0.25,0],[0.5,0],[0.75,0],[1,0],[1,0.25],[1,0.5],[1,0.75],[1,1],[0.75,1],[0.5,1],[0.25,1],[0,1],[0,0.75],[0,0.5],[0,0.25]];outlineConnect=0;gradientColor=none;html=1;whiteSpace=wrap;fontSize=12;fontStyle=0;shape=mxgraph.aws4.group;grIcon=mxgraph.aws4.group_security_group;grStroke=0;strokeColor=#147EBA;fillColor=#E6F2F8;verticalAlign=top;align=left;spacingLeft=30;fontColor=#147EBA;dashed=0;" vertex="1" parent="1">
          <mxGeometry x="270" y="1263" width="230" height="190" as="geometry" />
        </mxCell>
        <mxCell id="4pKm6GpEN4dzPu7E078--17" value="Private subnet (App)" style="points=[[0,0],[0.25,0],[0.5,0],[0.75,0],[1,0],[1,0.25],[1,0.5],[1,0.75],[1,1],[0.75,1],[0.5,1],[0.25,1],[0,1],[0,0.75],[0,0.5],[0,0.25]];outlineConnect=0;gradientColor=none;html=1;whiteSpace=wrap;fontSize=12;fontStyle=0;shape=mxgraph.aws4.group;grIcon=mxgraph.aws4.group_security_group;grStroke=0;strokeColor=#147EBA;fillColor=#E6F2F8;verticalAlign=top;align=left;spacingLeft=30;fontColor=#147EBA;dashed=0;" vertex="1" parent="1">
          <mxGeometry x="580" y="1260" width="230" height="190" as="geometry" />
        </mxCell>
        <mxCell id="4pKm6GpEN4dzPu7E078--18" value="Public subnet" style="points=[[0,0],[0.25,0],[0.5,0],[0.75,0],[1,0],[1,0.25],[1,0.5],[1,0.75],[1,1],[0.75,1],[0.5,1],[0.25,1],[0,1],[0,0.75],[0,0.5],[0,0.25]];outlineConnect=0;gradientColor=none;html=1;whiteSpace=wrap;fontSize=12;fontStyle=0;shape=mxgraph.aws4.group;grIcon=mxgraph.aws4.group_security_group;grStroke=0;strokeColor=#248814;fillColor=#E9F3E6;verticalAlign=top;align=left;spacingLeft=30;fontColor=#248814;dashed=0;" vertex="1" parent="1">
          <mxGeometry x="580" y="1040" width="230" height="190" as="geometry" />
        </mxCell>
        <mxCell id="4pKm6GpEN4dzPu7E078--19" value="Private subnet (Data)" style="points=[[0,0],[0.25,0],[0.5,0],[0.75,0],[1,0],[1,0.25],[1,0.5],[1,0.75],[1,1],[0.75,1],[0.5,1],[0.25,1],[0,1],[0,0.75],[0,0.5],[0,0.25]];outlineConnect=0;gradientColor=none;html=1;whiteSpace=wrap;fontSize=12;fontStyle=0;shape=mxgraph.aws4.group;grIcon=mxgraph.aws4.group_security_group;grStroke=0;strokeColor=#147EBA;fillColor=#E6F2F8;verticalAlign=top;align=left;spacingLeft=30;fontColor=#147EBA;dashed=0;" vertex="1" parent="1">
          <mxGeometry x="580" y="1480" width="230" height="200" as="geometry" />
        </mxCell>
        <mxCell id="4pKm6GpEN4dzPu7E078--20" value="Private subnet (Data)" style="points=[[0,0],[0.25,0],[0.5,0],[0.75,0],[1,0],[1,0.25],[1,0.5],[1,0.75],[1,1],[0.75,1],[0.5,1],[0.25,1],[0,1],[0,0.75],[0,0.5],[0,0.25]];outlineConnect=0;gradientColor=none;html=1;whiteSpace=wrap;fontSize=12;fontStyle=0;shape=mxgraph.aws4.group;grIcon=mxgraph.aws4.group_security_group;grStroke=0;strokeColor=#147EBA;fillColor=#E6F2F8;verticalAlign=top;align=left;spacingLeft=30;fontColor=#147EBA;dashed=0;" vertex="1" parent="1">
          <mxGeometry x="270" y="1480" width="230" height="200" as="geometry" />
        </mxCell>
        <mxCell id="4pKm6GpEN4dzPu7E078--21" style="edgeStyle=orthogonalEdgeStyle;rounded=0;orthogonalLoop=1;jettySize=auto;html=1;exitX=0.5;exitY=1;exitDx=0;exitDy=0;" edge="1" parent="1" source="4pKm6GpEN4dzPu7E078--13" target="4pKm6GpEN4dzPu7E078--13">
          <mxGeometry relative="1" as="geometry" />
        </mxCell>
        <mxCell id="4pKm6GpEN4dzPu7E078--22" value="NAT Gateway" style="outlineConnect=0;fontColor=#232F3E;gradientColor=none;fillColor=#5A30B5;strokeColor=none;dashed=0;verticalLabelPosition=bottom;verticalAlign=top;align=center;html=1;fontSize=12;fontStyle=0;aspect=fixed;pointerEvents=1;shape=mxgraph.aws4.nat_gateway;labelBackgroundColor=default;" vertex="1" parent="1">
          <mxGeometry x="362.5" y="1112.5" width="45" height="45" as="geometry" />
        </mxCell>
        <mxCell id="4pKm6GpEN4dzPu7E078--23" value="NAT Gateway" style="outlineConnect=0;fontColor=#232F3E;gradientColor=none;fillColor=#5A30B5;strokeColor=none;dashed=0;verticalLabelPosition=bottom;verticalAlign=top;align=center;html=1;fontSize=12;fontStyle=0;aspect=fixed;pointerEvents=1;shape=mxgraph.aws4.nat_gateway;labelBackgroundColor=default;" vertex="1" parent="1">
          <mxGeometry x="672.5" y="1112.5" width="45" height="45" as="geometry" />
        </mxCell>
        <mxCell id="4pKm6GpEN4dzPu7E078--32" style="edgeStyle=orthogonalEdgeStyle;rounded=0;orthogonalLoop=1;jettySize=auto;html=1;fillColor=#e1d5e7;strokeColor=#9673a6;strokeWidth=5;" edge="1" parent="1" source="4pKm6GpEN4dzPu7E078--27" target="ATrI4HB5Xo_vaF7HW7Qg-20">
          <mxGeometry relative="1" as="geometry">
            <Array as="points">
              <mxPoint x="697" y="1670" />
              <mxPoint x="84" y="1670" />
            </Array>
          </mxGeometry>
        </mxCell>
        <mxCell id="4pKm6GpEN4dzPu7E078--29" style="edgeStyle=orthogonalEdgeStyle;rounded=0;orthogonalLoop=1;jettySize=auto;html=1;fillColor=#f8cecc;strokeColor=#b85450;strokeWidth=6;" edge="1" parent="1" source="4pKm6GpEN4dzPu7E078--24" target="4pKm6GpEN4dzPu7E078--26">
          <mxGeometry relative="1" as="geometry">
            <Array as="points">
              <mxPoint x="440" y="1365" />
              <mxPoint x="440" y="1595" />
            </Array>
          </mxGeometry>
        </mxCell>
        <mxCell id="4pKm6GpEN4dzPu7E078--24" value="&lt;meta charset=&quot;utf-8&quot;&gt;&lt;span style=&quot;color: rgb(35, 47, 62); font-family: Helvetica; font-size: 12px; font-style: normal; font-variant-ligatures: normal; font-variant-caps: normal; font-weight: 400; letter-spacing: normal; orphans: 2; text-align: center; text-indent: 0px; text-transform: none; widows: 2; word-spacing: 0px; -webkit-text-stroke-width: 0px; white-space: nowrap; background-color: rgb(255, 255, 255); text-decoration-thickness: initial; text-decoration-style: initial; text-decoration-color: initial; display: inline !important; float: none;&quot;&gt;EC2 Instance&lt;/span&gt;" style="outlineConnect=0;fontColor=#232F3E;gradientColor=none;fillColor=#D86613;strokeColor=none;dashed=0;verticalLabelPosition=bottom;verticalAlign=top;align=center;html=1;fontSize=12;fontStyle=0;aspect=fixed;pointerEvents=1;shape=mxgraph.aws4.instance2;labelBackgroundColor=default;" vertex="1" parent="1">
          <mxGeometry x="359.5" y="1341" width="48" height="48" as="geometry" />
        </mxCell>
        <mxCell id="4pKm6GpEN4dzPu7E078--30" style="edgeStyle=orthogonalEdgeStyle;rounded=0;orthogonalLoop=1;jettySize=auto;html=1;strokeWidth=6;fillColor=#f8cecc;strokeColor=#b85450;" edge="1" parent="1" source="4pKm6GpEN4dzPu7E078--25" target="4pKm6GpEN4dzPu7E078--27">
          <mxGeometry relative="1" as="geometry">
            <Array as="points">
              <mxPoint x="750" y="1365" />
              <mxPoint x="750" y="1595" />
            </Array>
          </mxGeometry>
        </mxCell>
        <mxCell id="4pKm6GpEN4dzPu7E078--25" value="&lt;meta charset=&quot;utf-8&quot;&gt;&lt;span style=&quot;color: rgb(35, 47, 62); font-family: Helvetica; font-size: 12px; font-style: normal; font-variant-ligatures: normal; font-variant-caps: normal; font-weight: 400; letter-spacing: normal; orphans: 2; text-align: center; text-indent: 0px; text-transform: none; widows: 2; word-spacing: 0px; -webkit-text-stroke-width: 0px; white-space: nowrap; background-color: rgb(255, 255, 255); text-decoration-thickness: initial; text-decoration-style: initial; text-decoration-color: initial; display: inline !important; float: none;&quot;&gt;EC2 Instance&lt;/span&gt;" style="outlineConnect=0;fontColor=#232F3E;gradientColor=none;fillColor=#D86613;strokeColor=none;dashed=0;verticalLabelPosition=bottom;verticalAlign=top;align=center;html=1;fontSize=12;fontStyle=0;aspect=fixed;pointerEvents=1;shape=mxgraph.aws4.instance2;labelBackgroundColor=default;" vertex="1" parent="1">
          <mxGeometry x="671" y="1341" width="48" height="48" as="geometry" />
        </mxCell>
        <mxCell id="4pKm6GpEN4dzPu7E078--31" style="edgeStyle=orthogonalEdgeStyle;rounded=0;orthogonalLoop=1;jettySize=auto;html=1;fillColor=#e1d5e7;strokeColor=#9673a6;strokeWidth=4;" edge="1" parent="1" source="4pKm6GpEN4dzPu7E078--26" target="ATrI4HB5Xo_vaF7HW7Qg-20">
          <mxGeometry relative="1" as="geometry" />
        </mxCell>
        <mxCell id="4pKm6GpEN4dzPu7E078--26" value="Read Only" style="outlineConnect=0;fontColor=#232F3E;gradientColor=none;fillColor=#3334B9;strokeColor=none;dashed=0;verticalLabelPosition=bottom;verticalAlign=top;align=center;html=1;fontSize=12;fontStyle=0;aspect=fixed;pointerEvents=1;shape=mxgraph.aws4.aurora_instance;shadow=0;sketch=0;labelBackgroundColor=default;" vertex="1" parent="1">
          <mxGeometry x="361.5" y="1572.5" width="45" height="45" as="geometry" />
        </mxCell>
        <mxCell id="4pKm6GpEN4dzPu7E078--27" value="Read Only" style="outlineConnect=0;fontColor=#232F3E;gradientColor=none;fillColor=#3334B9;strokeColor=none;dashed=0;verticalLabelPosition=bottom;verticalAlign=top;align=center;html=1;fontSize=12;fontStyle=0;aspect=fixed;pointerEvents=1;shape=mxgraph.aws4.aurora_instance;shadow=0;sketch=0;labelBackgroundColor=default;" vertex="1" parent="1">
          <mxGeometry x="674" y="1572.5" width="45" height="45" as="geometry" />
        </mxCell>
        <mxCell id="4pKm6GpEN4dzPu7E078--28" style="edgeStyle=orthogonalEdgeStyle;rounded=0;orthogonalLoop=1;jettySize=auto;html=1;entryX=0.744;entryY=0.167;entryDx=0;entryDy=0;entryPerimeter=0;fillColor=#f8cecc;strokeColor=#b85450;strokeWidth=4;" edge="1" parent="1" source="ATrI4HB5Xo_vaF7HW7Qg-4" target="ATrI4HB5Xo_vaF7HW7Qg-20">
          <mxGeometry relative="1" as="geometry" />
        </mxCell>
        <mxCell id="ATrI4HB5Xo_vaF7HW7Qg-20" value="Master" style="outlineConnect=0;fontColor=#232F3E;gradientColor=none;fillColor=#3334B9;strokeColor=none;dashed=0;verticalLabelPosition=bottom;verticalAlign=top;align=center;html=1;fontSize=12;fontStyle=0;aspect=fixed;pointerEvents=1;shape=mxgraph.aws4.aurora_instance;shadow=0;sketch=0;labelBackgroundColor=default;" parent="1" vertex="1">
          <mxGeometry x="61.5" y="1572.5" width="45" height="45" as="geometry" />
        </mxCell>
        <mxCell id="4pKm6GpEN4dzPu7E078--35" style="edgeStyle=orthogonalEdgeStyle;rounded=0;orthogonalLoop=1;jettySize=auto;html=1;entryX=0.5;entryY=0;entryDx=0;entryDy=0;entryPerimeter=0;fillColor=#d5e8d4;strokeColor=#82b366;strokeWidth=4;" edge="1" parent="1" source="ATrI4HB5Xo_vaF7HW7Qg-28" target="ATrI4HB5Xo_vaF7HW7Qg-27">
          <mxGeometry relative="1" as="geometry" />
        </mxCell>
        <mxCell id="ATrI4HB5Xo_vaF7HW7Qg-4" value="&lt;meta charset=&quot;utf-8&quot;&gt;&lt;span style=&quot;color: rgb(35, 47, 62); font-family: Helvetica; font-size: 12px; font-style: normal; font-variant-ligatures: normal; font-variant-caps: normal; font-weight: 400; letter-spacing: normal; orphans: 2; text-align: center; text-indent: 0px; text-transform: none; widows: 2; word-spacing: 0px; -webkit-text-stroke-width: 0px; white-space: nowrap; background-color: rgb(255, 255, 255); text-decoration-thickness: initial; text-decoration-style: initial; text-decoration-color: initial; display: inline !important; float: none;&quot;&gt;EC2 Instance&lt;/span&gt;" style="outlineConnect=0;fontColor=#232F3E;gradientColor=none;fillColor=#D86613;strokeColor=none;dashed=0;verticalLabelPosition=bottom;verticalAlign=top;align=center;html=1;fontSize=12;fontStyle=0;aspect=fixed;pointerEvents=1;shape=mxgraph.aws4.instance2;labelBackgroundColor=default;" parent="1" vertex="1">
          <mxGeometry x="71" y="1334" width="48" height="48" as="geometry" />
        </mxCell>
      </root>
    </mxGraphModel>
  </diagram>
</mxfile>
